STARTFONT 2.1
FONT -misc-Darn-Medium-R-Normal--13-130-72-72-C-60-ISO10646-1
SIZE 13 72 72
FONTBOUNDINGBOX 29 13 -17 -2
COMMENT "Generated by fontforge, http://fontforge.sourceforge.net"
STARTPROPERTIES 17
FAMILY_NAME "Darn"
WEIGHT_NAME "Medium"
SLANT "R"
SETWIDTH_NAME "Normal"
FONT_NAME "DarnMedium"
FACE_NAME "Darn Medium"
FONT_VERSION "000.101"
COPYRIGHT "Copyright (c) 2020, Gabriel Holodak"
PIXEL_SIZE 13
POINT_SIZE 130
RESOLUTION_X 72
RESOLUTION_Y 72
AVERAGE_WIDTH 60
FONT_ASCENT 11
FONT_DESCENT 2
CAP_HEIGHT 11
X_HEIGHT 7
ENDPROPERTIES
CHARS 319
STARTCHAR U+0020
ENCODING 32
SWIDTH 206 0
DWIDTH 6 0
BBX 0 0 0 0
BITMAP
ENDCHAR
STARTCHAR U+0021
ENCODING 33
SWIDTH 206 0
DWIDTH 6 0
BBX 1 9 3 0
BITMAP
80
80
80
80
80
80
00
80
80
ENDCHAR
STARTCHAR U+0022
ENCODING 34
SWIDTH 206 0
DWIDTH 6 0
BBX 3 3 2 7
BITMAP
A0
A0
A0
ENDCHAR
STARTCHAR U+0023
ENCODING 35
SWIDTH 206 0
DWIDTH 6 0
BBX 5 9 1 0
BITMAP
50
50
F8
50
50
50
F8
50
50
ENDCHAR
STARTCHAR U+0024
ENCODING 36
SWIDTH 206 0
DWIDTH 6 0
BBX 5 11 1 -1
BITMAP
20
70
A8
A0
A0
70
28
28
A8
70
20
ENDCHAR
STARTCHAR U+0025
ENCODING 37
SWIDTH 206 0
DWIDTH 6 0
BBX 5 9 1 0
BITMAP
48
A8
B0
50
20
50
68
A8
90
ENDCHAR
STARTCHAR U+0026
ENCODING 38
SWIDTH 206 0
DWIDTH 6 0
BBX 5 9 1 0
BITMAP
20
50
50
20
60
A8
90
90
68
ENDCHAR
STARTCHAR U+0027
ENCODING 39
SWIDTH 206 0
DWIDTH 6 0
BBX 1 3 3 7
BITMAP
80
80
80
ENDCHAR
STARTCHAR U+0028
ENCODING 40
SWIDTH 206 0
DWIDTH 6 0
BBX 3 11 2 -1
BITMAP
20
40
40
80
80
80
80
80
40
40
20
ENDCHAR
STARTCHAR U+0029
ENCODING 41
SWIDTH 206 0
DWIDTH 6 0
BBX 3 11 2 -1
BITMAP
80
40
40
20
20
20
20
20
40
40
80
ENDCHAR
STARTCHAR U+002A
ENCODING 42
SWIDTH 206 0
DWIDTH 6 0
BBX 5 5 1 2
BITMAP
20
A8
70
A8
20
ENDCHAR
STARTCHAR U+002B
ENCODING 43
SWIDTH 206 0
DWIDTH 6 0
BBX 5 5 1 2
BITMAP
20
20
F8
20
20
ENDCHAR
STARTCHAR U+002C
ENCODING 44
SWIDTH 206 0
DWIDTH 6 0
BBX 2 4 2 -2
BITMAP
40
40
40
80
ENDCHAR
STARTCHAR U+002D
ENCODING 45
SWIDTH 206 0
DWIDTH 6 0
BBX 4 1 1 4
BITMAP
F0
ENDCHAR
STARTCHAR U+002E
ENCODING 46
SWIDTH 206 0
DWIDTH 6 0
BBX 1 2 3 0
BITMAP
80
80
ENDCHAR
STARTCHAR U+002F
ENCODING 47
SWIDTH 206 0
DWIDTH 6 0
BBX 5 10 1 0
BITMAP
08
08
10
10
20
20
40
40
80
80
ENDCHAR
STARTCHAR U+0030
ENCODING 48
SWIDTH 206 0
DWIDTH 6 0
BBX 5 9 1 0
BITMAP
70
88
98
A8
A8
A8
C8
88
70
ENDCHAR
STARTCHAR U+0031
ENCODING 49
SWIDTH 206 0
DWIDTH 6 0
BBX 5 9 1 0
BITMAP
20
60
A0
20
20
20
20
20
F8
ENDCHAR
STARTCHAR U+0032
ENCODING 50
SWIDTH 206 0
DWIDTH 6 0
BBX 5 9 1 0
BITMAP
70
88
08
10
20
40
80
80
F8
ENDCHAR
STARTCHAR U+0033
ENCODING 51
SWIDTH 206 0
DWIDTH 6 0
BBX 5 9 1 0
BITMAP
70
88
08
08
30
08
08
88
70
ENDCHAR
STARTCHAR U+0034
ENCODING 52
SWIDTH 206 0
DWIDTH 6 0
BBX 5 9 1 0
BITMAP
10
30
50
90
90
F8
10
10
10
ENDCHAR
STARTCHAR U+0035
ENCODING 53
SWIDTH 206 0
DWIDTH 6 0
BBX 5 9 1 0
BITMAP
F8
80
80
80
F0
08
08
88
70
ENDCHAR
STARTCHAR U+0036
ENCODING 54
SWIDTH 206 0
DWIDTH 6 0
BBX 5 9 1 0
BITMAP
70
88
80
80
F0
88
88
88
70
ENDCHAR
STARTCHAR U+0037
ENCODING 55
SWIDTH 206 0
DWIDTH 6 0
BBX 5 9 1 0
BITMAP
F8
08
08
10
10
20
20
20
20
ENDCHAR
STARTCHAR U+0038
ENCODING 56
SWIDTH 206 0
DWIDTH 6 0
BBX 5 9 1 0
BITMAP
70
88
88
88
70
88
88
88
70
ENDCHAR
STARTCHAR U+0039
ENCODING 57
SWIDTH 206 0
DWIDTH 6 0
BBX 5 9 1 0
BITMAP
70
88
88
88
78
08
08
88
70
ENDCHAR
STARTCHAR U+003A
ENCODING 58
SWIDTH 206 0
DWIDTH 6 0
BBX 1 6 3 1
BITMAP
80
80
00
00
80
80
ENDCHAR
STARTCHAR U+003B
ENCODING 59
SWIDTH 206 0
DWIDTH 6 0
BBX 2 9 2 -2
BITMAP
40
40
00
00
00
40
40
40
80
ENDCHAR
STARTCHAR U+003C
ENCODING 60
SWIDTH 206 0
DWIDTH 6 0
BBX 5 9 1 0
BITMAP
08
10
20
40
80
40
20
10
08
ENDCHAR
STARTCHAR U+003D
ENCODING 61
SWIDTH 206 0
DWIDTH 6 0
BBX 5 5 1 2
BITMAP
F8
00
00
00
F8
ENDCHAR
STARTCHAR U+003E
ENCODING 62
SWIDTH 206 0
DWIDTH 6 0
BBX 5 9 1 0
BITMAP
80
40
20
10
08
10
20
40
80
ENDCHAR
STARTCHAR U+003F
ENCODING 63
SWIDTH 206 0
DWIDTH 6 0
BBX 5 9 1 0
BITMAP
70
88
88
10
20
20
00
20
20
ENDCHAR
STARTCHAR U+0040
ENCODING 64
SWIDTH 206 0
DWIDTH 6 0
BBX 5 9 1 0
BITMAP
70
88
B8
A8
A8
A8
B8
80
78
ENDCHAR
STARTCHAR U+0041
ENCODING 65
SWIDTH 206 0
DWIDTH 6 0
BBX 5 9 1 0
BITMAP
20
20
50
50
88
F8
88
88
88
ENDCHAR
STARTCHAR U+0042
ENCODING 66
SWIDTH 206 0
DWIDTH 6 0
BBX 5 9 1 0
BITMAP
F0
88
88
88
F0
88
88
88
F0
ENDCHAR
STARTCHAR U+0043
ENCODING 67
SWIDTH 206 0
DWIDTH 6 0
BBX 5 9 1 0
BITMAP
70
88
80
80
80
80
80
88
70
ENDCHAR
STARTCHAR U+0044
ENCODING 68
SWIDTH 206 0
DWIDTH 6 0
BBX 5 9 1 0
BITMAP
E0
90
88
88
88
88
88
90
E0
ENDCHAR
STARTCHAR U+0045
ENCODING 69
SWIDTH 206 0
DWIDTH 6 0
BBX 5 9 1 0
BITMAP
F8
80
80
80
F0
80
80
80
F8
ENDCHAR
STARTCHAR U+0046
ENCODING 70
SWIDTH 206 0
DWIDTH 6 0
BBX 5 9 1 0
BITMAP
F8
80
80
80
F0
80
80
80
80
ENDCHAR
STARTCHAR U+0047
ENCODING 71
SWIDTH 206 0
DWIDTH 6 0
BBX 5 9 1 0
BITMAP
70
88
80
80
98
88
88
98
68
ENDCHAR
STARTCHAR U+0048
ENCODING 72
SWIDTH 206 0
DWIDTH 6 0
BBX 5 9 1 0
BITMAP
88
88
88
88
F8
88
88
88
88
ENDCHAR
STARTCHAR U+0049
ENCODING 73
SWIDTH 206 0
DWIDTH 6 0
BBX 5 9 1 0
BITMAP
F8
20
20
20
20
20
20
20
F8
ENDCHAR
STARTCHAR U+004A
ENCODING 74
SWIDTH 206 0
DWIDTH 6 0
BBX 5 9 1 0
BITMAP
38
08
08
08
08
08
88
88
70
ENDCHAR
STARTCHAR U+004B
ENCODING 75
SWIDTH 206 0
DWIDTH 6 0
BBX 5 9 1 0
BITMAP
88
88
90
A0
C0
A0
90
88
88
ENDCHAR
STARTCHAR U+004C
ENCODING 76
SWIDTH 206 0
DWIDTH 6 0
BBX 5 9 1 0
BITMAP
80
80
80
80
80
80
80
80
F8
ENDCHAR
STARTCHAR U+004D
ENCODING 77
SWIDTH 206 0
DWIDTH 6 0
BBX 5 9 1 0
BITMAP
88
88
D8
A8
A8
88
88
88
88
ENDCHAR
STARTCHAR U+004E
ENCODING 78
SWIDTH 206 0
DWIDTH 6 0
BBX 5 9 1 0
BITMAP
88
88
C8
A8
A8
98
88
88
88
ENDCHAR
STARTCHAR U+004F
ENCODING 79
SWIDTH 206 0
DWIDTH 6 0
BBX 5 9 1 0
BITMAP
70
88
88
88
88
88
88
88
70
ENDCHAR
STARTCHAR U+0050
ENCODING 80
SWIDTH 206 0
DWIDTH 6 0
BBX 5 9 1 0
BITMAP
F0
88
88
88
F0
80
80
80
80
ENDCHAR
STARTCHAR U+0051
ENCODING 81
SWIDTH 206 0
DWIDTH 6 0
BBX 5 10 1 -1
BITMAP
70
88
88
88
88
88
A8
D8
70
08
ENDCHAR
STARTCHAR U+0052
ENCODING 82
SWIDTH 206 0
DWIDTH 6 0
BBX 5 9 1 0
BITMAP
F0
88
88
88
F0
90
90
88
88
ENDCHAR
STARTCHAR U+0053
ENCODING 83
SWIDTH 206 0
DWIDTH 6 0
BBX 5 9 1 0
BITMAP
70
88
80
80
70
08
08
88
70
ENDCHAR
STARTCHAR U+0054
ENCODING 84
SWIDTH 206 0
DWIDTH 6 0
BBX 5 9 1 0
BITMAP
F8
20
20
20
20
20
20
20
20
ENDCHAR
STARTCHAR U+0055
ENCODING 85
SWIDTH 206 0
DWIDTH 6 0
BBX 5 9 1 0
BITMAP
88
88
88
88
88
88
88
88
70
ENDCHAR
STARTCHAR U+0056
ENCODING 86
SWIDTH 206 0
DWIDTH 6 0
BBX 5 9 1 0
BITMAP
88
88
88
88
88
50
50
20
20
ENDCHAR
STARTCHAR U+0057
ENCODING 87
SWIDTH 206 0
DWIDTH 6 0
BBX 5 9 1 0
BITMAP
88
88
88
88
A8
A8
A8
50
50
ENDCHAR
STARTCHAR U+0058
ENCODING 88
SWIDTH 206 0
DWIDTH 6 0
BBX 5 9 1 0
BITMAP
88
88
50
50
20
50
50
88
88
ENDCHAR
STARTCHAR U+0059
ENCODING 89
SWIDTH 206 0
DWIDTH 6 0
BBX 5 9 1 0
BITMAP
88
88
88
50
20
20
20
20
20
ENDCHAR
STARTCHAR U+005A
ENCODING 90
SWIDTH 206 0
DWIDTH 6 0
BBX 5 9 1 0
BITMAP
F8
08
10
10
20
40
40
80
F8
ENDCHAR
STARTCHAR U+005B
ENCODING 91
SWIDTH 206 0
DWIDTH 6 0
BBX 3 11 2 -1
BITMAP
E0
80
80
80
80
80
80
80
80
80
E0
ENDCHAR
STARTCHAR U+005C
ENCODING 92
SWIDTH 206 0
DWIDTH 6 0
BBX 5 10 1 0
BITMAP
80
80
40
40
20
20
10
10
08
08
ENDCHAR
STARTCHAR U+005D
ENCODING 93
SWIDTH 206 0
DWIDTH 6 0
BBX 3 11 2 -1
BITMAP
E0
20
20
20
20
20
20
20
20
20
E0
ENDCHAR
STARTCHAR U+005E
ENCODING 94
SWIDTH 206 0
DWIDTH 6 0
BBX 5 3 1 7
BITMAP
20
50
88
ENDCHAR
STARTCHAR U+005F
ENCODING 95
SWIDTH 206 0
DWIDTH 6 0
BBX 5 1 1 -1
BITMAP
F8
ENDCHAR
STARTCHAR U+0060
ENCODING 96
SWIDTH 206 0
DWIDTH 6 0
BBX 3 3 2 7
BITMAP
80
40
20
ENDCHAR
STARTCHAR U+0061
ENCODING 97
SWIDTH 206 0
DWIDTH 6 0
BBX 5 7 1 0
BITMAP
70
08
08
78
88
88
78
ENDCHAR
STARTCHAR U+0062
ENCODING 98
SWIDTH 206 0
DWIDTH 6 0
BBX 5 10 1 0
BITMAP
80
80
80
F0
88
88
88
88
88
F0
ENDCHAR
STARTCHAR U+0063
ENCODING 99
SWIDTH 206 0
DWIDTH 6 0
BBX 5 7 1 0
BITMAP
70
88
80
80
80
88
70
ENDCHAR
STARTCHAR U+0064
ENCODING 100
SWIDTH 206 0
DWIDTH 6 0
BBX 5 10 1 0
BITMAP
08
08
08
78
88
88
88
88
88
78
ENDCHAR
STARTCHAR U+0065
ENCODING 101
SWIDTH 206 0
DWIDTH 6 0
BBX 5 7 1 0
BITMAP
70
88
88
F8
80
88
70
ENDCHAR
STARTCHAR U+0066
ENCODING 102
SWIDTH 206 0
DWIDTH 6 0
BBX 5 10 1 0
BITMAP
38
40
40
F0
40
40
40
40
40
40
ENDCHAR
STARTCHAR U+0067
ENCODING 103
SWIDTH 206 0
DWIDTH 6 0
BBX 5 9 1 -2
BITMAP
78
88
88
88
88
88
78
08
70
ENDCHAR
STARTCHAR U+0068
ENCODING 104
SWIDTH 206 0
DWIDTH 6 0
BBX 5 10 1 0
BITMAP
80
80
80
F0
88
88
88
88
88
88
ENDCHAR
STARTCHAR U+0069
ENCODING 105
SWIDTH 206 0
DWIDTH 6 0
BBX 3 10 2 0
BITMAP
40
40
00
C0
40
40
40
40
40
60
ENDCHAR
STARTCHAR U+006A
ENCODING 106
SWIDTH 206 0
DWIDTH 6 0
BBX 4 12 1 -2
BITMAP
10
10
00
30
10
10
10
10
10
10
10
E0
ENDCHAR
STARTCHAR U+006B
ENCODING 107
SWIDTH 206 0
DWIDTH 6 0
BBX 5 10 1 0
BITMAP
80
80
80
88
90
A0
C0
A0
90
88
ENDCHAR
STARTCHAR U+006C
ENCODING 108
SWIDTH 206 0
DWIDTH 6 0
BBX 3 10 2 0
BITMAP
C0
40
40
40
40
40
40
40
40
60
ENDCHAR
STARTCHAR U+006D
ENCODING 109
SWIDTH 206 0
DWIDTH 6 0
BBX 5 7 1 0
BITMAP
D0
A8
A8
A8
A8
A8
A8
ENDCHAR
STARTCHAR U+006E
ENCODING 110
SWIDTH 206 0
DWIDTH 6 0
BBX 5 7 1 0
BITMAP
F0
88
88
88
88
88
88
ENDCHAR
STARTCHAR U+006F
ENCODING 111
SWIDTH 206 0
DWIDTH 6 0
BBX 5 7 1 0
BITMAP
70
88
88
88
88
88
70
ENDCHAR
STARTCHAR U+0070
ENCODING 112
SWIDTH 206 0
DWIDTH 6 0
BBX 5 9 1 -2
BITMAP
F0
88
88
88
88
88
F0
80
80
ENDCHAR
STARTCHAR U+0071
ENCODING 113
SWIDTH 206 0
DWIDTH 6 0
BBX 5 9 1 -2
BITMAP
78
88
88
88
88
88
78
08
08
ENDCHAR
STARTCHAR U+0072
ENCODING 114
SWIDTH 206 0
DWIDTH 6 0
BBX 5 7 1 0
BITMAP
B0
C8
88
80
80
80
80
ENDCHAR
STARTCHAR U+0073
ENCODING 115
SWIDTH 206 0
DWIDTH 6 0
BBX 5 7 1 0
BITMAP
70
88
80
70
08
88
70
ENDCHAR
STARTCHAR U+0074
ENCODING 116
SWIDTH 206 0
DWIDTH 6 0
BBX 5 10 1 0
BITMAP
40
40
40
F0
40
40
40
40
40
38
ENDCHAR
STARTCHAR U+0075
ENCODING 117
SWIDTH 206 0
DWIDTH 6 0
BBX 5 7 1 0
BITMAP
88
88
88
88
88
88
78
ENDCHAR
STARTCHAR U+0076
ENCODING 118
SWIDTH 206 0
DWIDTH 6 0
BBX 5 7 1 0
BITMAP
88
88
88
50
50
20
20
ENDCHAR
STARTCHAR U+0077
ENCODING 119
SWIDTH 206 0
DWIDTH 6 0
BBX 5 7 1 0
BITMAP
88
88
88
A8
A8
50
50
ENDCHAR
STARTCHAR U+0078
ENCODING 120
SWIDTH 206 0
DWIDTH 6 0
BBX 5 7 1 0
BITMAP
88
88
50
20
50
88
88
ENDCHAR
STARTCHAR U+0079
ENCODING 121
SWIDTH 206 0
DWIDTH 6 0
BBX 5 9 1 -2
BITMAP
88
88
88
88
88
88
78
08
70
ENDCHAR
STARTCHAR U+007A
ENCODING 122
SWIDTH 206 0
DWIDTH 6 0
BBX 5 7 1 0
BITMAP
F8
08
10
20
40
80
F8
ENDCHAR
STARTCHAR U+007B
ENCODING 123
SWIDTH 206 0
DWIDTH 6 0
BBX 4 11 1 -1
BITMAP
30
40
40
20
20
C0
20
20
40
40
30
ENDCHAR
STARTCHAR U+007C
ENCODING 124
SWIDTH 206 0
DWIDTH 6 0
BBX 1 11 3 -1
BITMAP
80
80
80
80
80
80
80
80
80
80
80
ENDCHAR
STARTCHAR U+007D
ENCODING 125
SWIDTH 206 0
DWIDTH 6 0
BBX 4 11 1 -1
BITMAP
C0
20
20
40
40
30
40
40
20
20
C0
ENDCHAR
STARTCHAR U+007E
ENCODING 126
SWIDTH 206 0
DWIDTH 6 0
BBX 5 3 1 4
BITMAP
48
A8
90
ENDCHAR
STARTCHAR U+00A0
ENCODING 160
SWIDTH 206 0
DWIDTH 6 0
BBX 0 0 0 0
BITMAP
ENDCHAR
STARTCHAR U+00A1
ENCODING 161
SWIDTH 206 0
DWIDTH 6 0
BBX 1 9 3 -2
BITMAP
80
80
00
80
80
80
80
80
80
ENDCHAR
STARTCHAR U+00A2
ENCODING 162
SWIDTH 206 0
DWIDTH 6 0
BBX 5 9 1 -1
BITMAP
20
70
A8
A0
A0
A0
A8
70
20
ENDCHAR
STARTCHAR U+00A3
ENCODING 163
SWIDTH 206 0
DWIDTH 6 0
BBX 5 9 1 0
BITMAP
30
48
40
40
F0
40
40
80
F8
ENDCHAR
STARTCHAR U+00A4
ENCODING 164
SWIDTH 206 0
DWIDTH 6 0
BBX 5 6 1 1
BITMAP
A8
50
88
88
50
A8
ENDCHAR
STARTCHAR U+00A5
ENCODING 165
SWIDTH 206 0
DWIDTH 6 0
BBX 5 9 1 0
BITMAP
88
88
88
50
F8
20
F8
20
20
ENDCHAR
STARTCHAR U+00A6
ENCODING 166
SWIDTH 206 0
DWIDTH 6 0
BBX 1 11 3 -1
BITMAP
80
80
80
80
80
00
80
80
80
80
80
ENDCHAR
STARTCHAR U+00A7
ENCODING 167
SWIDTH 206 0
DWIDTH 6 0
BBX 5 11 1 -2
BITMAP
70
88
80
60
90
88
48
30
08
88
70
ENDCHAR
STARTCHAR U+00A8
ENCODING 168
SWIDTH 206 0
DWIDTH 6 0
BBX 3 1 2 10
BITMAP
A0
ENDCHAR
STARTCHAR U+00A9
ENCODING 169
SWIDTH 206 0
DWIDTH 6 0
BBX 5 7 1 1
BITMAP
70
D8
A8
B8
A8
D8
70
ENDCHAR
STARTCHAR U+00AA
ENCODING 170
SWIDTH 206 0
DWIDTH 6 0
BBX 4 5 1 4
BITMAP
60
10
70
90
70
ENDCHAR
STARTCHAR U+00AB
ENCODING 171
SWIDTH 206 0
DWIDTH 6 0
BBX 5 5 1 1
BITMAP
28
50
A0
50
28
ENDCHAR
STARTCHAR U+00AC
ENCODING 172
SWIDTH 206 0
DWIDTH 6 0
BBX 5 3 1 2
BITMAP
F8
08
08
ENDCHAR
STARTCHAR U+00AD
ENCODING 173
SWIDTH 206 0
DWIDTH 6 0
BBX 0 0 0 0
BITMAP
ENDCHAR
STARTCHAR U+00AE
ENCODING 174
SWIDTH 206 0
DWIDTH 6 0
BBX 5 7 1 1
BITMAP
70
D8
A8
98
A8
A8
70
ENDCHAR
STARTCHAR U+00AF
ENCODING 175
SWIDTH 206 0
DWIDTH 6 0
BBX 3 1 2 9
BITMAP
E0
ENDCHAR
STARTCHAR U+00B0
ENCODING 176
SWIDTH 206 0
DWIDTH 6 0
BBX 4 4 1 6
BITMAP
60
90
90
60
ENDCHAR
STARTCHAR U+00B1
ENCODING 177
SWIDTH 206 0
DWIDTH 6 0
BBX 5 7 1 0
BITMAP
20
20
F8
20
20
00
F8
ENDCHAR
STARTCHAR U+00B2
ENCODING 178
SWIDTH 206 0
DWIDTH 6 0
BBX 3 5 2 5
BITMAP
40
A0
40
80
E0
ENDCHAR
STARTCHAR U+00B3
ENCODING 179
SWIDTH 206 0
DWIDTH 6 0
BBX 3 5 2 5
BITMAP
C0
20
40
20
C0
ENDCHAR
STARTCHAR U+00B4
ENCODING 180
SWIDTH 206 0
DWIDTH 6 0
BBX 2 2 3 9
BITMAP
40
80
ENDCHAR
STARTCHAR U+00B5
ENCODING 181
SWIDTH 206 0
DWIDTH 6 0
BBX 5 9 1 -2
BITMAP
88
88
88
88
88
98
E8
80
80
ENDCHAR
STARTCHAR U+00B6
ENCODING 182
SWIDTH 206 0
DWIDTH 6 0
BBX 5 10 1 -1
BITMAP
78
E8
E8
E8
E8
68
28
28
28
28
ENDCHAR
STARTCHAR U+00B7
ENCODING 183
SWIDTH 206 0
DWIDTH 6 0
BBX 1 2 3 3
BITMAP
80
80
ENDCHAR
STARTCHAR U+00B8
ENCODING 184
SWIDTH 206 0
DWIDTH 6 0
BBX 2 2 2 -2
BITMAP
40
C0
ENDCHAR
STARTCHAR U+00B9
ENCODING 185
SWIDTH 206 0
DWIDTH 6 0
BBX 3 5 2 5
BITMAP
40
C0
40
40
E0
ENDCHAR
STARTCHAR U+00BA
ENCODING 186
SWIDTH 206 0
DWIDTH 6 0
BBX 4 5 1 4
BITMAP
60
90
90
90
60
ENDCHAR
STARTCHAR U+00BB
ENCODING 187
SWIDTH 206 0
DWIDTH 6 0
BBX 5 5 1 1
BITMAP
A0
50
28
50
A0
ENDCHAR
STARTCHAR U+00BC
ENCODING 188
SWIDTH 206 0
DWIDTH 6 0
BBX 5 9 1 0
BITMAP
40
C0
40
F0
20
50
B0
78
10
ENDCHAR
STARTCHAR U+00BD
ENCODING 189
SWIDTH 206 0
DWIDTH 6 0
BBX 5 9 1 0
BITMAP
40
C0
40
F0
20
50
A8
10
38
ENDCHAR
STARTCHAR U+00BE
ENCODING 190
SWIDTH 206 0
DWIDTH 6 0
BBX 5 9 1 0
BITMAP
C0
20
40
30
E0
50
B0
78
10
ENDCHAR
STARTCHAR U+00BF
ENCODING 191
SWIDTH 206 0
DWIDTH 6 0
BBX 5 9 1 -2
BITMAP
20
20
00
20
20
40
88
88
70
ENDCHAR
STARTCHAR U+00C0
ENCODING 192
SWIDTH 206 0
DWIDTH 6 0
BBX 5 11 1 0
BITMAP
40
20
00
20
50
50
88
F8
88
88
88
ENDCHAR
STARTCHAR U+00C1
ENCODING 193
SWIDTH 206 0
DWIDTH 6 0
BBX 5 11 1 0
BITMAP
10
20
00
20
50
50
88
F8
88
88
88
ENDCHAR
STARTCHAR U+00C2
ENCODING 194
SWIDTH 206 0
DWIDTH 6 0
BBX 5 11 1 0
BITMAP
20
50
00
20
50
50
88
F8
88
88
88
ENDCHAR
STARTCHAR U+00C3
ENCODING 195
SWIDTH 206 0
DWIDTH 6 0
BBX 5 11 1 0
BITMAP
28
50
00
20
50
50
88
F8
88
88
88
ENDCHAR
STARTCHAR U+00C4
ENCODING 196
SWIDTH 206 0
DWIDTH 6 0
BBX 5 11 1 0
BITMAP
50
00
20
20
50
50
88
F8
88
88
88
ENDCHAR
STARTCHAR U+00C5
ENCODING 197
SWIDTH 206 0
DWIDTH 6 0
BBX 5 11 1 0
BITMAP
20
50
20
20
50
50
88
F8
88
88
88
ENDCHAR
STARTCHAR U+00C6
ENCODING 198
SWIDTH 206 0
DWIDTH 6 0
BBX 5 9 1 0
BITMAP
38
60
60
A0
B8
E0
A0
A0
B8
ENDCHAR
STARTCHAR U+00C7
ENCODING 199
SWIDTH 206 0
DWIDTH 6 0
BBX 5 11 1 -2
BITMAP
70
88
80
80
80
80
80
88
70
20
60
ENDCHAR
STARTCHAR U+00C8
ENCODING 200
SWIDTH 206 0
DWIDTH 6 0
BBX 5 11 1 0
BITMAP
40
20
00
F8
80
80
F0
80
80
80
F8
ENDCHAR
STARTCHAR U+00C9
ENCODING 201
SWIDTH 206 0
DWIDTH 6 0
BBX 5 11 1 0
BITMAP
10
20
00
F8
80
80
F0
80
80
80
F8
ENDCHAR
STARTCHAR U+00CA
ENCODING 202
SWIDTH 206 0
DWIDTH 6 0
BBX 5 11 1 0
BITMAP
20
50
00
F8
80
80
F0
80
80
80
F8
ENDCHAR
STARTCHAR U+00CB
ENCODING 203
SWIDTH 206 0
DWIDTH 6 0
BBX 5 11 1 0
BITMAP
50
00
F8
80
80
80
F0
80
80
80
F8
ENDCHAR
STARTCHAR U+00CC
ENCODING 204
SWIDTH 206 0
DWIDTH 6 0
BBX 5 11 1 0
BITMAP
40
20
00
F8
20
20
20
20
20
20
F8
ENDCHAR
STARTCHAR U+00CD
ENCODING 205
SWIDTH 206 0
DWIDTH 6 0
BBX 5 11 1 0
BITMAP
10
20
00
F8
20
20
20
20
20
20
F8
ENDCHAR
STARTCHAR U+00CE
ENCODING 206
SWIDTH 206 0
DWIDTH 6 0
BBX 5 11 1 0
BITMAP
20
50
00
F8
20
20
20
20
20
20
F8
ENDCHAR
STARTCHAR U+00CF
ENCODING 207
SWIDTH 206 0
DWIDTH 6 0
BBX 5 11 1 0
BITMAP
50
00
F8
20
20
20
20
20
20
20
F8
ENDCHAR
STARTCHAR U+00D0
ENCODING 208
SWIDTH 206 0
DWIDTH 6 0
BBX 5 9 1 0
BITMAP
60
50
48
48
E8
48
48
50
60
ENDCHAR
STARTCHAR U+00D1
ENCODING 209
SWIDTH 206 0
DWIDTH 6 0
BBX 5 11 1 0
BITMAP
28
50
00
88
88
C8
A8
A8
98
88
88
ENDCHAR
STARTCHAR U+00D2
ENCODING 210
SWIDTH 206 0
DWIDTH 6 0
BBX 5 11 1 0
BITMAP
40
20
00
70
88
88
88
88
88
88
70
ENDCHAR
STARTCHAR U+00D3
ENCODING 211
SWIDTH 206 0
DWIDTH 6 0
BBX 5 11 1 0
BITMAP
10
20
00
70
88
88
88
88
88
88
70
ENDCHAR
STARTCHAR U+00D4
ENCODING 212
SWIDTH 206 0
DWIDTH 6 0
BBX 5 11 1 0
BITMAP
20
50
00
70
88
88
88
88
88
88
70
ENDCHAR
STARTCHAR U+00D5
ENCODING 213
SWIDTH 206 0
DWIDTH 6 0
BBX 5 11 1 0
BITMAP
28
50
00
70
88
88
88
88
88
88
70
ENDCHAR
STARTCHAR U+00D6
ENCODING 214
SWIDTH 206 0
DWIDTH 6 0
BBX 5 11 1 0
BITMAP
50
00
70
88
88
88
88
88
88
88
70
ENDCHAR
STARTCHAR U+00D7
ENCODING 215
SWIDTH 206 0
DWIDTH 6 0
BBX 5 5 1 2
BITMAP
88
50
20
50
88
ENDCHAR
STARTCHAR U+00D8
ENCODING 216
SWIDTH 206 0
DWIDTH 6 0
BBX 5 11 1 -1
BITMAP
08
70
98
98
A8
A8
A8
C8
C8
70
80
ENDCHAR
STARTCHAR U+00D9
ENCODING 217
SWIDTH 206 0
DWIDTH 6 0
BBX 5 11 1 0
BITMAP
40
20
00
88
88
88
88
88
88
88
70
ENDCHAR
STARTCHAR U+00DA
ENCODING 218
SWIDTH 206 0
DWIDTH 6 0
BBX 5 11 1 0
BITMAP
10
20
00
88
88
88
88
88
88
88
70
ENDCHAR
STARTCHAR U+00DB
ENCODING 219
SWIDTH 206 0
DWIDTH 6 0
BBX 5 11 1 0
BITMAP
20
50
00
88
88
88
88
88
88
88
70
ENDCHAR
STARTCHAR U+00DC
ENCODING 220
SWIDTH 206 0
DWIDTH 6 0
BBX 5 11 1 0
BITMAP
50
00
88
88
88
88
88
88
88
88
70
ENDCHAR
STARTCHAR U+00DD
ENCODING 221
SWIDTH 206 0
DWIDTH 6 0
BBX 5 11 1 0
BITMAP
10
20
00
88
88
88
50
20
20
20
20
ENDCHAR
STARTCHAR U+00DE
ENCODING 222
SWIDTH 206 0
DWIDTH 6 0
BBX 5 9 1 0
BITMAP
80
80
F0
88
88
88
F0
80
80
ENDCHAR
STARTCHAR U+00DF
ENCODING 223
SWIDTH 206 0
DWIDTH 6 0
BBX 5 9 1 0
BITMAP
60
90
90
A0
A0
90
88
88
B0
ENDCHAR
STARTCHAR U+00E0
ENCODING 224
SWIDTH 206 0
DWIDTH 6 0
BBX 5 10 1 0
BITMAP
40
20
00
70
08
08
78
88
88
78
ENDCHAR
STARTCHAR U+00E1
ENCODING 225
SWIDTH 206 0
DWIDTH 6 0
BBX 5 10 1 0
BITMAP
10
20
00
70
08
08
78
88
88
78
ENDCHAR
STARTCHAR U+00E2
ENCODING 226
SWIDTH 206 0
DWIDTH 6 0
BBX 5 10 1 0
BITMAP
20
50
00
70
08
08
78
88
88
78
ENDCHAR
STARTCHAR U+00E3
ENCODING 227
SWIDTH 206 0
DWIDTH 6 0
BBX 5 10 1 0
BITMAP
28
50
00
70
08
08
78
88
88
78
ENDCHAR
STARTCHAR U+00E4
ENCODING 228
SWIDTH 206 0
DWIDTH 6 0
BBX 5 9 1 0
BITMAP
50
00
70
08
08
78
88
88
78
ENDCHAR
STARTCHAR U+00E5
ENCODING 229
SWIDTH 206 0
DWIDTH 6 0
BBX 5 10 1 0
BITMAP
20
50
20
70
08
08
78
88
88
78
ENDCHAR
STARTCHAR U+00E6
ENCODING 230
SWIDTH 206 0
DWIDTH 6 0
BBX 5 7 1 0
BITMAP
70
A8
28
70
A0
A8
50
ENDCHAR
STARTCHAR U+00E7
ENCODING 231
SWIDTH 206 0
DWIDTH 6 0
BBX 5 9 1 -2
BITMAP
70
88
80
80
80
88
70
20
60
ENDCHAR
STARTCHAR U+00E8
ENCODING 232
SWIDTH 206 0
DWIDTH 6 0
BBX 5 10 1 0
BITMAP
40
20
00
70
88
88
F8
80
88
70
ENDCHAR
STARTCHAR U+00E9
ENCODING 233
SWIDTH 206 0
DWIDTH 6 0
BBX 5 10 1 0
BITMAP
10
20
00
70
88
88
F8
80
88
70
ENDCHAR
STARTCHAR U+00EA
ENCODING 234
SWIDTH 206 0
DWIDTH 6 0
BBX 5 10 1 0
BITMAP
20
50
00
70
88
88
F8
80
88
70
ENDCHAR
STARTCHAR U+00EB
ENCODING 235
SWIDTH 206 0
DWIDTH 6 0
BBX 5 9 1 0
BITMAP
50
00
70
88
88
F8
80
88
70
ENDCHAR
STARTCHAR U+00EC
ENCODING 236
SWIDTH 206 0
DWIDTH 6 0
BBX 3 10 2 0
BITMAP
80
40
00
C0
40
40
40
40
40
60
ENDCHAR
STARTCHAR U+00ED
ENCODING 237
SWIDTH 206 0
DWIDTH 6 0
BBX 3 10 2 0
BITMAP
20
40
00
C0
40
40
40
40
40
60
ENDCHAR
STARTCHAR U+00EE
ENCODING 238
SWIDTH 206 0
DWIDTH 6 0
BBX 3 10 2 0
BITMAP
40
A0
00
C0
40
40
40
40
40
60
ENDCHAR
STARTCHAR U+00EF
ENCODING 239
SWIDTH 206 0
DWIDTH 6 0
BBX 3 9 2 0
BITMAP
A0
00
C0
40
40
40
40
40
60
ENDCHAR
STARTCHAR U+00F0
ENCODING 240
SWIDTH 206 0
DWIDTH 6 0
BBX 5 10 1 0
BITMAP
48
30
50
08
78
88
88
88
88
70
ENDCHAR
STARTCHAR U+00F1
ENCODING 241
SWIDTH 206 0
DWIDTH 6 0
BBX 5 10 1 0
BITMAP
28
50
00
F0
88
88
88
88
88
88
ENDCHAR
STARTCHAR U+00F2
ENCODING 242
SWIDTH 206 0
DWIDTH 6 0
BBX 5 10 1 0
BITMAP
40
20
00
70
88
88
88
88
88
70
ENDCHAR
STARTCHAR U+00F3
ENCODING 243
SWIDTH 206 0
DWIDTH 6 0
BBX 5 10 1 0
BITMAP
10
20
00
70
88
88
88
88
88
70
ENDCHAR
STARTCHAR U+00F4
ENCODING 244
SWIDTH 206 0
DWIDTH 6 0
BBX 5 10 1 0
BITMAP
20
50
00
70
88
88
88
88
88
70
ENDCHAR
STARTCHAR U+00F5
ENCODING 245
SWIDTH 206 0
DWIDTH 6 0
BBX 5 10 1 0
BITMAP
28
50
00
70
88
88
88
88
88
70
ENDCHAR
STARTCHAR U+00F6
ENCODING 246
SWIDTH 206 0
DWIDTH 6 0
BBX 5 9 1 0
BITMAP
50
00
70
88
88
88
88
88
70
ENDCHAR
STARTCHAR U+00F7
ENCODING 247
SWIDTH 206 0
DWIDTH 6 0
BBX 5 5 1 2
BITMAP
20
00
F8
00
20
ENDCHAR
STARTCHAR U+00F8
ENCODING 248
SWIDTH 206 0
DWIDTH 6 0
BBX 5 9 1 -1
BITMAP
08
70
98
A8
A8
A8
C8
70
80
ENDCHAR
STARTCHAR U+00F9
ENCODING 249
SWIDTH 206 0
DWIDTH 6 0
BBX 5 10 1 0
BITMAP
40
20
00
88
88
88
88
88
88
78
ENDCHAR
STARTCHAR U+00FA
ENCODING 250
SWIDTH 206 0
DWIDTH 6 0
BBX 5 10 1 0
BITMAP
10
20
00
88
88
88
88
88
88
78
ENDCHAR
STARTCHAR U+00FB
ENCODING 251
SWIDTH 206 0
DWIDTH 6 0
BBX 5 10 1 0
BITMAP
20
50
00
88
88
88
88
88
88
78
ENDCHAR
STARTCHAR U+00FC
ENCODING 252
SWIDTH 206 0
DWIDTH 6 0
BBX 5 9 1 0
BITMAP
50
00
88
88
88
88
88
88
78
ENDCHAR
STARTCHAR U+00FD
ENCODING 253
SWIDTH 206 0
DWIDTH 6 0
BBX 5 12 1 -2
BITMAP
10
20
00
88
88
88
88
88
88
78
08
70
ENDCHAR
STARTCHAR U+00FE
ENCODING 254
SWIDTH 206 0
DWIDTH 6 0
BBX 5 11 1 -2
BITMAP
80
80
B0
C8
88
88
88
C8
B0
80
80
ENDCHAR
STARTCHAR U+00FF
ENCODING 255
SWIDTH 206 0
DWIDTH 6 0
BBX 5 11 1 -2
BITMAP
50
00
88
88
88
88
88
88
78
08
70
ENDCHAR
STARTCHAR U+0394
ENCODING 916
SWIDTH 206 0
DWIDTH 6 0
BBX 5 9 1 0
BITMAP
20
20
20
50
50
50
88
88
F8
ENDCHAR
STARTCHAR U+03A0
ENCODING 928
SWIDTH 206 0
DWIDTH 6 0
BBX 5 9 1 0
BITMAP
F8
88
88
88
88
88
88
88
88
ENDCHAR
STARTCHAR U+03A3
ENCODING 931
SWIDTH 206 0
DWIDTH 6 0
BBX 5 9 1 0
BITMAP
F8
80
40
20
10
20
40
80
F8
ENDCHAR
STARTCHAR U+03B1
ENCODING 945
SWIDTH 206 0
DWIDTH 6 0
BBX 5 7 1 0
BITMAP
68
90
90
90
90
90
68
ENDCHAR
STARTCHAR U+03B2
ENCODING 946
SWIDTH 206 0
DWIDTH 6 0
BBX 5 11 1 -2
BITMAP
60
90
90
90
B0
88
88
88
F0
80
80
ENDCHAR
STARTCHAR U+03BB
ENCODING 955
SWIDTH 206 0
DWIDTH 6 0
BBX 5 9 1 0
BITMAP
C0
20
20
20
20
50
50
90
88
ENDCHAR
STARTCHAR U+03BC
ENCODING 956
SWIDTH 206 0
DWIDTH 6 0
BBX 5 9 1 -2
BITMAP
88
88
88
88
88
98
E8
80
80
ENDCHAR
STARTCHAR U+03C0
ENCODING 960
SWIDTH 206 0
DWIDTH 6 0
BBX 5 7 1 0
BITMAP
F8
50
50
50
50
50
48
ENDCHAR
STARTCHAR U+2010
ENCODING 8208
SWIDTH 206 0
DWIDTH 6 0
BBX 4 1 1 4
BITMAP
F0
ENDCHAR
STARTCHAR U+2011
ENCODING 8209
SWIDTH 206 0
DWIDTH 6 0
BBX 4 1 1 4
BITMAP
F0
ENDCHAR
STARTCHAR U+2012
ENCODING 8210
SWIDTH 206 0
DWIDTH 6 0
BBX 5 1 1 4
BITMAP
F8
ENDCHAR
STARTCHAR U+2013
ENCODING 8211
SWIDTH 206 0
DWIDTH 6 0
BBX 5 1 1 4
BITMAP
F8
ENDCHAR
STARTCHAR U+2014
ENCODING 8212
SWIDTH 206 0
DWIDTH 6 0
BBX 6 1 0 4
BITMAP
FC
ENDCHAR
STARTCHAR U+2015
ENCODING 8213
SWIDTH 206 0
DWIDTH 6 0
BBX 6 1 0 4
BITMAP
FC
ENDCHAR
STARTCHAR U+2018
ENCODING 8216
SWIDTH 206 0
DWIDTH 6 0
BBX 2 4 3 6
BITMAP
40
80
80
C0
ENDCHAR
STARTCHAR U+2019
ENCODING 8217
SWIDTH 206 0
DWIDTH 6 0
BBX 2 4 2 6
BITMAP
C0
40
40
80
ENDCHAR
STARTCHAR U+201A
ENCODING 8218
SWIDTH 206 0
DWIDTH 6 0
BBX 2 4 3 -2
BITMAP
C0
40
40
80
ENDCHAR
STARTCHAR U+201B
ENCODING 8219
SWIDTH 206 0
DWIDTH 6 0
BBX 2 4 3 6
BITMAP
C0
80
80
40
ENDCHAR
STARTCHAR U+201C
ENCODING 8220
SWIDTH 206 0
DWIDTH 6 0
BBX 5 4 1 6
BITMAP
48
90
90
D8
ENDCHAR
STARTCHAR U+201D
ENCODING 8221
SWIDTH 206 0
DWIDTH 6 0
BBX 5 4 1 6
BITMAP
D8
48
48
90
ENDCHAR
STARTCHAR U+201E
ENCODING 8222
SWIDTH 206 0
DWIDTH 6 0
BBX 5 4 1 -2
BITMAP
D8
48
48
90
ENDCHAR
STARTCHAR U+201F
ENCODING 8223
SWIDTH 206 0
DWIDTH 6 0
BBX 5 4 1 6
BITMAP
D8
90
90
48
ENDCHAR
STARTCHAR U+2020
ENCODING 8224
SWIDTH 241 0
DWIDTH 7 0
BBX 5 10 1 -1
BITMAP
20
20
20
F8
20
20
20
20
20
20
ENDCHAR
STARTCHAR U+2021
ENCODING 8225
SWIDTH 241 0
DWIDTH 7 0
BBX 5 10 1 -1
BITMAP
20
20
20
F8
20
20
F8
20
20
20
ENDCHAR
STARTCHAR U+2022
ENCODING 8226
SWIDTH 206 0
DWIDTH 6 0
BBX 4 4 1 3
BITMAP
60
F0
F0
60
ENDCHAR
STARTCHAR U+2024
ENCODING 8228
SWIDTH 206 0
DWIDTH 6 0
BBX 1 2 3 0
BITMAP
80
80
ENDCHAR
STARTCHAR U+2025
ENCODING 8229
SWIDTH 206 0
DWIDTH 6 0
BBX 4 2 1 0
BITMAP
90
90
ENDCHAR
STARTCHAR U+2026
ENCODING 8230
SWIDTH 206 0
DWIDTH 6 0
BBX 5 2 1 0
BITMAP
A8
A8
ENDCHAR
STARTCHAR U+2030
ENCODING 8240
SWIDTH 206 0
DWIDTH 6 0
BBX 5 9 1 0
BITMAP
40
A0
50
20
40
80
50
A8
50
ENDCHAR
STARTCHAR U+2039
ENCODING 8249
SWIDTH 206 0
DWIDTH 6 0
BBX 3 5 2 1
BITMAP
20
40
80
40
20
ENDCHAR
STARTCHAR U+203A
ENCODING 8250
SWIDTH 206 0
DWIDTH 6 0
BBX 3 5 2 1
BITMAP
80
40
20
40
80
ENDCHAR
STARTCHAR U+203B
ENCODING 8251
SWIDTH 241 0
DWIDTH 7 0
BBX 5 7 1 1
BITMAP
20
88
50
A8
50
88
20
ENDCHAR
STARTCHAR U+203D
ENCODING 8253
SWIDTH 206 0
DWIDTH 6 0
BBX 5 9 1 0
BITMAP
70
A8
A8
30
20
20
00
20
20
ENDCHAR
STARTCHAR U+25CC
ENCODING 9676
SWIDTH 206 0
DWIDTH 6 0
BBX 5 7 1 0
BITMAP
20
88
00
88
00
88
20
ENDCHAR
STARTCHAR U+26A0
ENCODING 9888
SWIDTH 413 0
DWIDTH 12 0
BBX 11 12 1 -1
BITMAP
0400
0400
0A00
0A00
1100
1500
2480
2480
4040
4440
8020
FFE0
ENDCHAR
STARTCHAR U+2713
ENCODING 10003
SWIDTH 206 0
DWIDTH 6 0
BBX 5 9 1 0
BITMAP
08
08
10
10
10
A0
A0
40
40
ENDCHAR
STARTCHAR U+2714
ENCODING 10004
SWIDTH 206 0
DWIDTH 6 0
BBX 5 9 1 0
BITMAP
08
08
18
10
B0
A0
E0
C0
40
ENDCHAR
STARTCHAR U+2715
ENCODING 10005
SWIDTH 206 0
DWIDTH 6 0
BBX 5 5 1 2
BITMAP
88
50
20
50
88
ENDCHAR
STARTCHAR U+2716
ENCODING 10006
SWIDTH 206 0
DWIDTH 6 0
BBX 5 6 1 2
BITMAP
88
D8
70
70
D8
88
ENDCHAR
STARTCHAR U+2717
ENCODING 10007
SWIDTH 206 0
DWIDTH 6 0
BBX 5 8 1 0
BITMAP
48
50
20
60
50
90
88
80
ENDCHAR
STARTCHAR U+2718
ENCODING 10008
SWIDTH 206 0
DWIDTH 6 0
BBX 5 8 1 0
BITMAP
88
D8
70
60
70
D8
88
80
ENDCHAR
STARTCHAR U+274C
ENCODING 10060
SWIDTH 413 0
DWIDTH 12 0
BBX 11 11 1 -1
BITMAP
C060
E0E0
71C0
3B80
1F00
0E00
1F00
3B80
71C0
E0E0
C060
ENDCHAR
STARTCHAR U+27E6
ENCODING 10214
SWIDTH 206 0
DWIDTH 6 0
BBX 5 11 1 -1
BITMAP
F8
A0
A0
A0
A0
A0
A0
A0
A0
A0
F8
ENDCHAR
STARTCHAR U+27E7
ENCODING 10215
SWIDTH 206 0
DWIDTH 6 0
BBX 5 11 1 -1
BITMAP
F8
28
28
28
28
28
28
28
28
28
F8
ENDCHAR
STARTCHAR U+2800
ENCODING 10240
SWIDTH 206 0
DWIDTH 6 0
BBX 0 0 0 0
BITMAP
ENDCHAR
STARTCHAR U+2801
ENCODING 10241
SWIDTH 206 0
DWIDTH 6 0
BBX 2 2 1 8
BITMAP
C0
C0
ENDCHAR
STARTCHAR U+2802
ENCODING 10242
SWIDTH 206 0
DWIDTH 6 0
BBX 2 2 1 4
BITMAP
C0
C0
ENDCHAR
STARTCHAR U+2803
ENCODING 10243
SWIDTH 206 0
DWIDTH 6 0
BBX 2 6 1 4
BITMAP
C0
C0
00
00
C0
C0
ENDCHAR
STARTCHAR U+2804
ENCODING 10244
SWIDTH 206 0
DWIDTH 6 0
BBX 2 2 1 0
BITMAP
C0
C0
ENDCHAR
STARTCHAR U+2805
ENCODING 10245
SWIDTH 206 0
DWIDTH 6 0
BBX 2 10 1 0
BITMAP
C0
C0
00
00
00
00
00
00
C0
C0
ENDCHAR
STARTCHAR U+2806
ENCODING 10246
SWIDTH 206 0
DWIDTH 6 0
BBX 2 6 1 0
BITMAP
C0
C0
00
00
C0
C0
ENDCHAR
STARTCHAR U+2807
ENCODING 10247
SWIDTH 206 0
DWIDTH 6 0
BBX 2 10 1 0
BITMAP
C0
C0
00
00
C0
C0
00
00
C0
C0
ENDCHAR
STARTCHAR U+2808
ENCODING 10248
SWIDTH 206 0
DWIDTH 6 0
BBX 2 2 4 8
BITMAP
C0
C0
ENDCHAR
STARTCHAR U+2809
ENCODING 10249
SWIDTH 206 0
DWIDTH 6 0
BBX 5 2 1 8
BITMAP
D8
D8
ENDCHAR
STARTCHAR U+280A
ENCODING 10250
SWIDTH 206 0
DWIDTH 6 0
BBX 5 6 1 4
BITMAP
18
18
00
00
C0
C0
ENDCHAR
STARTCHAR U+280B
ENCODING 10251
SWIDTH 206 0
DWIDTH 6 0
BBX 5 6 1 4
BITMAP
D8
D8
00
00
C0
C0
ENDCHAR
STARTCHAR U+280C
ENCODING 10252
SWIDTH 206 0
DWIDTH 6 0
BBX 5 10 1 0
BITMAP
18
18
00
00
00
00
00
00
C0
C0
ENDCHAR
STARTCHAR U+280D
ENCODING 10253
SWIDTH 206 0
DWIDTH 6 0
BBX 5 10 1 0
BITMAP
D8
D8
00
00
00
00
00
00
C0
C0
ENDCHAR
STARTCHAR U+280E
ENCODING 10254
SWIDTH 206 0
DWIDTH 6 0
BBX 5 10 1 0
BITMAP
18
18
00
00
C0
C0
00
00
C0
C0
ENDCHAR
STARTCHAR U+280F
ENCODING 10255
SWIDTH 206 0
DWIDTH 6 0
BBX 5 10 1 0
BITMAP
D8
D8
00
00
C0
C0
00
00
C0
C0
ENDCHAR
STARTCHAR U+2810
ENCODING 10256
SWIDTH 206 0
DWIDTH 6 0
BBX 2 2 4 4
BITMAP
C0
C0
ENDCHAR
STARTCHAR U+2811
ENCODING 10257
SWIDTH 206 0
DWIDTH 6 0
BBX 5 6 1 4
BITMAP
C0
C0
00
00
18
18
ENDCHAR
STARTCHAR U+2812
ENCODING 10258
SWIDTH 206 0
DWIDTH 6 0
BBX 5 2 1 4
BITMAP
D8
D8
ENDCHAR
STARTCHAR U+2813
ENCODING 10259
SWIDTH 206 0
DWIDTH 6 0
BBX 5 6 1 4
BITMAP
C0
C0
00
00
D8
D8
ENDCHAR
STARTCHAR U+2814
ENCODING 10260
SWIDTH 206 0
DWIDTH 6 0
BBX 5 6 1 0
BITMAP
18
18
00
00
C0
C0
ENDCHAR
STARTCHAR U+2815
ENCODING 10261
SWIDTH 206 0
DWIDTH 6 0
BBX 5 10 1 0
BITMAP
C0
C0
00
00
18
18
00
00
C0
C0
ENDCHAR
STARTCHAR U+2816
ENCODING 10262
SWIDTH 206 0
DWIDTH 6 0
BBX 5 6 1 0
BITMAP
D8
D8
00
00
C0
C0
ENDCHAR
STARTCHAR U+2817
ENCODING 10263
SWIDTH 206 0
DWIDTH 6 0
BBX 5 10 1 0
BITMAP
C0
C0
00
00
D8
D8
00
00
C0
C0
ENDCHAR
STARTCHAR U+2818
ENCODING 10264
SWIDTH 206 0
DWIDTH 6 0
BBX 2 6 4 4
BITMAP
C0
C0
00
00
C0
C0
ENDCHAR
STARTCHAR U+2819
ENCODING 10265
SWIDTH 206 0
DWIDTH 6 0
BBX 5 6 1 4
BITMAP
D8
D8
00
00
18
18
ENDCHAR
STARTCHAR U+281A
ENCODING 10266
SWIDTH 206 0
DWIDTH 6 0
BBX 5 6 1 4
BITMAP
18
18
00
00
D8
D8
ENDCHAR
STARTCHAR U+281B
ENCODING 10267
SWIDTH 206 0
DWIDTH 6 0
BBX 5 6 1 4
BITMAP
D8
D8
00
00
D8
D8
ENDCHAR
STARTCHAR U+281C
ENCODING 10268
SWIDTH 206 0
DWIDTH 6 0
BBX 5 10 1 0
BITMAP
18
18
00
00
18
18
00
00
C0
C0
ENDCHAR
STARTCHAR U+281D
ENCODING 10269
SWIDTH 206 0
DWIDTH 6 0
BBX 5 10 1 0
BITMAP
D8
D8
00
00
18
18
00
00
C0
C0
ENDCHAR
STARTCHAR U+281E
ENCODING 10270
SWIDTH 206 0
DWIDTH 6 0
BBX 5 10 1 0
BITMAP
18
18
00
00
D8
D8
00
00
C0
C0
ENDCHAR
STARTCHAR U+281F
ENCODING 10271
SWIDTH 206 0
DWIDTH 6 0
BBX 5 10 1 0
BITMAP
D8
D8
00
00
D8
D8
00
00
C0
C0
ENDCHAR
STARTCHAR U+2820
ENCODING 10272
SWIDTH 206 0
DWIDTH 6 0
BBX 2 2 4 0
BITMAP
C0
C0
ENDCHAR
STARTCHAR U+2821
ENCODING 10273
SWIDTH 206 0
DWIDTH 6 0
BBX 5 10 1 0
BITMAP
C0
C0
00
00
00
00
00
00
18
18
ENDCHAR
STARTCHAR U+2822
ENCODING 10274
SWIDTH 206 0
DWIDTH 6 0
BBX 5 6 1 0
BITMAP
C0
C0
00
00
18
18
ENDCHAR
STARTCHAR U+2823
ENCODING 10275
SWIDTH 206 0
DWIDTH 6 0
BBX 5 10 1 0
BITMAP
C0
C0
00
00
C0
C0
00
00
18
18
ENDCHAR
STARTCHAR U+2824
ENCODING 10276
SWIDTH 206 0
DWIDTH 6 0
BBX 5 2 1 0
BITMAP
D8
D8
ENDCHAR
STARTCHAR U+2825
ENCODING 10277
SWIDTH 206 0
DWIDTH 6 0
BBX 5 10 1 0
BITMAP
C0
C0
00
00
00
00
00
00
D8
D8
ENDCHAR
STARTCHAR U+2826
ENCODING 10278
SWIDTH 206 0
DWIDTH 6 0
BBX 5 6 1 0
BITMAP
C0
C0
00
00
D8
D8
ENDCHAR
STARTCHAR U+2827
ENCODING 10279
SWIDTH 206 0
DWIDTH 6 0
BBX 5 10 1 0
BITMAP
C0
C0
00
00
C0
C0
00
00
D8
D8
ENDCHAR
STARTCHAR U+2828
ENCODING 10280
SWIDTH 206 0
DWIDTH 6 0
BBX 2 10 4 0
BITMAP
C0
C0
00
00
00
00
00
00
C0
C0
ENDCHAR
STARTCHAR U+2829
ENCODING 10281
SWIDTH 206 0
DWIDTH 6 0
BBX 5 10 1 0
BITMAP
D8
D8
00
00
00
00
00
00
18
18
ENDCHAR
STARTCHAR U+282A
ENCODING 10282
SWIDTH 206 0
DWIDTH 6 0
BBX 5 10 1 0
BITMAP
18
18
00
00
C0
C0
00
00
18
18
ENDCHAR
STARTCHAR U+282B
ENCODING 10283
SWIDTH 206 0
DWIDTH 6 0
BBX 5 10 1 0
BITMAP
D8
D8
00
00
C0
C0
00
00
18
18
ENDCHAR
STARTCHAR U+282C
ENCODING 10284
SWIDTH 206 0
DWIDTH 6 0
BBX 5 10 1 0
BITMAP
18
18
00
00
00
00
00
00
D8
D8
ENDCHAR
STARTCHAR U+282D
ENCODING 10285
SWIDTH 206 0
DWIDTH 6 0
BBX 5 10 1 0
BITMAP
D8
D8
00
00
00
00
00
00
D8
D8
ENDCHAR
STARTCHAR U+282E
ENCODING 10286
SWIDTH 206 0
DWIDTH 6 0
BBX 5 10 1 0
BITMAP
18
18
00
00
C0
C0
00
00
D8
D8
ENDCHAR
STARTCHAR U+282F
ENCODING 10287
SWIDTH 206 0
DWIDTH 6 0
BBX 5 10 1 0
BITMAP
D8
D8
00
00
C0
C0
00
00
D8
D8
ENDCHAR
STARTCHAR U+2830
ENCODING 10288
SWIDTH 206 0
DWIDTH 6 0
BBX 2 6 4 0
BITMAP
C0
C0
00
00
C0
C0
ENDCHAR
STARTCHAR U+2831
ENCODING 10289
SWIDTH 206 0
DWIDTH 6 0
BBX 5 10 1 0
BITMAP
C0
C0
00
00
18
18
00
00
18
18
ENDCHAR
STARTCHAR U+2832
ENCODING 10290
SWIDTH 206 0
DWIDTH 6 0
BBX 5 6 1 0
BITMAP
D8
D8
00
00
18
18
ENDCHAR
STARTCHAR U+2833
ENCODING 10291
SWIDTH 206 0
DWIDTH 6 0
BBX 5 10 1 0
BITMAP
C0
C0
00
00
D8
D8
00
00
18
18
ENDCHAR
STARTCHAR U+2834
ENCODING 10292
SWIDTH 206 0
DWIDTH 6 0
BBX 5 6 1 0
BITMAP
18
18
00
00
D8
D8
ENDCHAR
STARTCHAR U+2835
ENCODING 10293
SWIDTH 206 0
DWIDTH 6 0
BBX 5 10 1 0
BITMAP
C0
C0
00
00
18
18
00
00
D8
D8
ENDCHAR
STARTCHAR U+2836
ENCODING 10294
SWIDTH 206 0
DWIDTH 6 0
BBX 5 6 1 0
BITMAP
D8
D8
00
00
D8
D8
ENDCHAR
STARTCHAR U+2837
ENCODING 10295
SWIDTH 206 0
DWIDTH 6 0
BBX 5 10 1 0
BITMAP
C0
C0
00
00
D8
D8
00
00
D8
D8
ENDCHAR
STARTCHAR U+2838
ENCODING 10296
SWIDTH 206 0
DWIDTH 6 0
BBX 2 10 4 0
BITMAP
C0
C0
00
00
C0
C0
00
00
C0
C0
ENDCHAR
STARTCHAR U+2839
ENCODING 10297
SWIDTH 206 0
DWIDTH 6 0
BBX 5 10 1 0
BITMAP
D8
D8
00
00
18
18
00
00
18
18
ENDCHAR
STARTCHAR U+283A
ENCODING 10298
SWIDTH 206 0
DWIDTH 6 0
BBX 5 10 1 0
BITMAP
18
18
00
00
D8
D8
00
00
18
18
ENDCHAR
STARTCHAR U+283B
ENCODING 10299
SWIDTH 206 0
DWIDTH 6 0
BBX 5 10 1 0
BITMAP
D8
D8
00
00
D8
D8
00
00
18
18
ENDCHAR
STARTCHAR U+283C
ENCODING 10300
SWIDTH 206 0
DWIDTH 6 0
BBX 5 10 1 0
BITMAP
18
18
00
00
18
18
00
00
D8
D8
ENDCHAR
STARTCHAR U+283D
ENCODING 10301
SWIDTH 206 0
DWIDTH 6 0
BBX 5 10 1 0
BITMAP
D8
D8
00
00
18
18
00
00
D8
D8
ENDCHAR
STARTCHAR U+283E
ENCODING 10302
SWIDTH 206 0
DWIDTH 6 0
BBX 5 10 1 0
BITMAP
18
18
00
00
D8
D8
00
00
D8
D8
ENDCHAR
STARTCHAR U+283F
ENCODING 10303
SWIDTH 206 0
DWIDTH 6 0
BBX 5 10 1 0
BITMAP
D8
D8
00
00
D8
D8
00
00
D8
D8
ENDCHAR
STARTCHAR U+2B61
ENCODING 11105
SWIDTH 206 0
DWIDTH 6 0
BBX 5 10 1 -1
BITMAP
20
70
F8
20
20
20
20
20
20
20
ENDCHAR
STARTCHAR U+2B63
ENCODING 11107
SWIDTH 206 0
DWIDTH 6 0
BBX 5 10 1 -1
BITMAP
20
20
20
20
20
20
20
F8
70
20
ENDCHAR
STARTCHAR U+2B81
ENCODING 11137
SWIDTH 206 0
DWIDTH 6 0
BBX 8 10 -1 0
BITMAP
24
74
FC
24
24
24
24
3F
2E
24
ENDCHAR
STARTCHAR U+2B83
ENCODING 11139
SWIDTH 206 0
DWIDTH 6 0
BBX 8 10 -1 0
BITMAP
24
2E
3F
24
24
24
24
FC
74
24
ENDCHAR
STARTCHAR U+2E28
ENCODING 11816
SWIDTH 206 0
DWIDTH 6 0
BBX 5 11 1 -1
BITMAP
28
50
50
A0
A0
A0
A0
A0
50
50
28
ENDCHAR
STARTCHAR U+2E29
ENCODING 11817
SWIDTH 206 0
DWIDTH 6 0
BBX 5 11 1 -1
BITMAP
A0
50
50
28
28
28
28
28
50
50
A0
ENDCHAR
STARTCHAR LIG
ENCODING -1
SWIDTH 206 0
DWIDTH 6 0
BBX 0 0 0 0
BITMAP
ENDCHAR
STARTCHAR hyphen_greater.liga
ENCODING -1
SWIDTH 206 0
DWIDTH 6 0
BBX 11 9 -5 0
BITMAP
0200
0100
0080
0040
FFE0
0040
0080
0100
0200
ENDCHAR
STARTCHAR hyphen_hyphen_greater.liga
ENCODING -1
SWIDTH 206 0
DWIDTH 6 0
BBX 17 9 -11 0
BITMAP
000800
000400
000200
000100
FFFF80
000100
000200
000400
000800
ENDCHAR
STARTCHAR equal_greater.liga
ENCODING -1
SWIDTH 206 0
DWIDTH 6 0
BBX 11 9 -5 0
BITMAP
0200
0100
FF80
0040
0020
0040
FF80
0100
0200
ENDCHAR
STARTCHAR equal_equal_greater.liga
ENCODING -1
SWIDTH 206 0
DWIDTH 6 0
BBX 17 9 -11 0
BITMAP
000800
000400
FFFE00
000100
000080
000100
FFFE00
000400
000800
ENDCHAR
STARTCHAR less_equal_equal.liga
ENCODING -1
SWIDTH 206 0
DWIDTH 6 0
BBX 17 9 -11 0
BITMAP
080000
100000
3FFF80
400000
800000
400000
3FFF80
100000
080000
ENDCHAR
STARTCHAR less_hyphen_hyphen.liga
ENCODING -1
SWIDTH 206 0
DWIDTH 6 0
BBX 17 9 -11 0
BITMAP
080000
100000
200000
400000
FFFF80
400000
200000
100000
080000
ENDCHAR
STARTCHAR less_hyphen.liga
ENCODING -1
SWIDTH 206 0
DWIDTH 6 0
BBX 11 9 -5 0
BITMAP
0800
1000
2000
4000
FFE0
4000
2000
1000
0800
ENDCHAR
STARTCHAR less_exclam_hyphen_hyphen.liga
ENCODING -1
SWIDTH 206 0
DWIDTH 6 0
BBX 23 9 -17 0
BITMAP
088000
108000
208000
408000
FEBFFE
408000
200000
108000
088000
ENDCHAR
STARTCHAR less_equal_greater.liga
ENCODING -1
SWIDTH 206 0
DWIDTH 6 0
BBX 17 9 -11 0
BITMAP
080800
100400
3FFE00
400100
800080
400100
3FFE00
100400
080800
ENDCHAR
STARTCHAR equal_equal.liga
ENCODING -1
SWIDTH 206 0
DWIDTH 6 0
BBX 11 5 -5 2
BITMAP
FFE0
0000
0000
0000
FFE0
ENDCHAR
STARTCHAR equal_equal_equal.liga
ENCODING -1
SWIDTH 206 0
DWIDTH 6 0
BBX 17 7 -11 1
BITMAP
FBEF80
000000
000000
FBEF80
000000
000000
FBEF80
ENDCHAR
STARTCHAR exclam_equal.liga
ENCODING -1
SWIDTH 206 0
DWIDTH 6 0
BBX 11 9 -5 0
BITMAP
0080
0100
FFE0
0200
0400
0800
FFE0
1000
2000
ENDCHAR
STARTCHAR exclam_equal_equal.liga
ENCODING -1
SWIDTH 206 0
DWIDTH 6 0
BBX 17 11 -11 -1
BITMAP
000400
000800
FBFF80
002000
004000
FBEF80
010000
020000
FFEF80
080000
100000
ENDCHAR
ENDFONT
